<svg xmlns="http://www.w3.org/2000/svg" xmlns:xlink="http://www.w3.org/1999/xlink" viewBox="0 0 2053 2053"><defs><style>.cls-1,.cls-34,.cls-4{fill:none;}.cls-12,.cls-2{fill:#f1cab1;}.cls-10,.cls-14,.cls-17,.cls-2,.cls-4,.cls-9{stroke:#54442d;}.cls-10,.cls-14,.cls-17,.cls-2,.cls-24,.cls-28,.cls-32,.cls-34,.cls-4,.cls-7,.cls-8,.cls-9{stroke-miterlimit:10;}.cls-10,.cls-2,.cls-32,.cls-34,.cls-4,.cls-7,.cls-8,.cls-9{stroke-width:5px;}.cls-3{fill:#d8a285;}.cls-5{fill:#b8b6cb;}.cls-6{fill:#90879c;}.cls-7{fill:#3a281a;stroke:#331907;}.cls-35,.cls-8{fill:#775a3c;}.cls-32,.cls-34,.cls-8{stroke:#3c220f;}.cls-9{fill:#d0a185;}.cls-10{fill:#bf8b71;}.cls-11{opacity:0.25;}.cls-13{clip-path:url(#clip-path);}.cls-14{fill:#341f1b;}.cls-14,.cls-17{stroke-width:4px;}.cls-15{fill:#aa6f6b;}.cls-16{clip-path:url(#clip-path-2);}.cls-17{fill:#cfa185;}.cls-18{fill:#120903;}.cls-19{fill:#c99d80;}.cls-20{fill:#785c3e;}.cls-21{clip-path:url(#clip-path-3);}.cls-22,.cls-28{fill:#fff;}.cls-23{clip-path:url(#clip-path-4);}.cls-24{fill:#5e8e9c;stroke-width:2px;}.cls-24,.cls-28{stroke:#000;}.cls-25{fill:#43606b;}.cls-26{clip-path:url(#clip-path-5);}.cls-27{fill:#778c8f;}.cls-29{clip-path:url(#clip-path-6);}.cls-30{clip-path:url(#clip-path-7);}.cls-31{clip-path:url(#clip-path-8);}.cls-32,.cls-36{fill:#533823;}.cls-33{fill:#775a3f;}.cls-37{fill:#3c220f;}</style><clipPath id="clip-path"><path id="嘴.蒙版" class="cls-1" d="M1227.52,1289.68c77.92,0,127.21-10.25,155.85-8.21,19.14,1.37,31.45,17.78,31.45,34.18s-21.88,128.52-117.58,166.8c-91.55,36.62-207.81,56-314.45,56-47.85,0-208.74-28.49-255.65-99.8-34.18-52-43.75-79.3-43.75-117.58s83.39-123,170.89-123C999.2,1198.08,1038.85,1289.68,1227.52,1289.68Z"/></clipPath><clipPath id="clip-path-2"><path id="嘴.舌上阴影蒙版" class="cls-1" d="M1374.48,1387.43c0,61.52-61.52,84.88-61.52,154.49,0,23.24-166.79,30.08-313.08,30.08s-351.35-55.37-351.35-218.75,88.86-203.71,199.6-203.71C1086,1149.54,1374.48,1282.16,1374.48,1387.43Z"/></clipPath><clipPath id="clip-path-3"><path id="左眼.蒙版" class="cls-1" d="M1628.78,420.85c49.21,0,166.79,131.25,166.79,169.53S1717.64,794.08,1686.2,816s-69.73,31.44-108,31.44c-57.42,0-169.53-38.28-169.53-213.27,0-45.12-2.73-87.5,4.11-94.34C1461.42,491.14,1572.72,420.85,1628.78,420.85Z"/></clipPath><clipPath id="clip-path-4"><path id="左眼.球体.蒙版" class="cls-1" d="M1589.13,464.6c69.72,0,118.94,41,118.94,168.16,0,76.56-72.46,154.49-139.45,154.49-9.57,0-120.31,6.83-120.31-144.92C1448.31,569.87,1522.14,464.6,1589.13,464.6Z"/></clipPath><clipPath id="clip-path-5"><path id="左眼.装饰.蒙版" class="cls-1" d="M1586.39,720.26c53.32,1.36,142.19-38.28,142.19-142.19S1669.79,440,1594.6,440s-114.16,69.73-114.16,114.16S1512.59,718.36,1586.39,720.26Z"/></clipPath><clipPath id="clip-path-6"><path id="左眼.蒙版-2" data-name="左眼.蒙版" class="cls-1" d="M645.79,419.48c50.76,0,139.45,49.22,191.4,97.07,7.82,7.21,8.21,71.65,8.21,101.17,0,231-194.14,259.76-242,259.76-17.77,0-263.86-10.94-263.86-307.61C339.55,558.93,531,419.48,645.79,419.48Z"/></clipPath><clipPath id="clip-path-7"><path id="左眼.球体.蒙版-2" data-name="左眼.球体.蒙版" class="cls-1" d="M625.28,453.66c64.26,0,161.33,49.22,161.33,180.47S663.56,807.76,625.28,807.76,464,799.55,464,641C464,476.9,573.33,453.66,625.28,453.66Z"/></clipPath><clipPath id="clip-path-8"><path id="左眼.装饰.蒙版-2" data-name="左眼.装饰.蒙版" class="cls-1" d="M671.77,728.46c45.11,0,129.88-38.28,129.88-124.41,0-94.33-71.1-244.72-160-244.72S487.2,403.08,487.2,487.84C487.2,578.07,578.8,728.46,671.77,728.46Z"/></clipPath></defs><g id="图层_2" data-name="图层 2"><g id="Malse.1"><g id="脖子"><path id="脖子.底" class="cls-2" d="M1210.43,1893.28c0-68.36,53.32-381.44,53.32-381.44l-642.57-134s53.32,138.14,53.32,214.7-24.61,306.25-120.31,306.25c-81.21,0-81.74,95.69-75.1,151.75h816.34l1.13-31.44S1210.43,1949.33,1210.43,1893.28Z"/><path id="脖子.阴影2" class="cls-3" d="M1213.6,1913.05l18.63,137.45h63.2l1.13-31.44S1229.13,1964.46,1213.6,1913.05Z"/><path id="脖子.阴影1" class="cls-3" d="M674.5,1592.5c0,76.56-24.61,306.25-120.31,306.25-13.14,0-24.15,2.53-33.38,7L622.58,2050.5H704c90.72-60.81,267.84-181.35,338.31-242,32.71-28.14,125.52-108.35,201.42-174,10.8-68.35,20.06-122.7,20.06-122.7l-642.57-134S674.5,1515.94,674.5,1592.5Z"/><path id="脖子.线" class="cls-4" d="M1210.43,1893.28c0-68.36,53.32-381.44,53.32-381.44l-642.57-134s53.32,138.14,53.32,214.7-24.61,306.25-120.31,306.25c-81.21,0-81.74,95.69-75.1,151.75h816.34l1.13-31.44S1210.43,1949.33,1210.43,1893.28Z"/></g><g id="衣服"><g id="衣服._左" data-name="衣服. 左"><path id="衣服.左.底" class="cls-5" d="M1424.39,1961c-15-10.94-128.52-128.51-136.72-134s-68.36-21.87-68.36-21.87-6.83,32.81-6.83,52v61.45l38.28,54.69s-19.14-90.24-16.41-84.77,16.41,56.06,19.14,73.83c2,13,3.27,62.47,3.81,88.18h326.9C1534.17,2023.18,1435.55,1969.07,1424.39,1961Z"/><path id="衣服.左.影子" class="cls-6" d="M1214.47,1833.47a187,187,0,0,0-2,23.65v61.45l38.28,54.69s-19.14-90.24-16.41-84.77,16.41,56.06,19.14,73.83c.85,5.48,1.56,17.47,2.14,31.43,0,0,2-46.47,2-94.32C1257.59,1860.9,1236.32,1840.11,1214.47,1833.47Z"/><path id="衣服.左.线条" class="cls-4" d="M1424.39,1961c-15-10.94-128.52-128.51-136.72-134s-68.36-21.87-68.36-21.87-6.83,32.81-6.83,52v61.45l38.28,54.69s-19.14-90.24-16.41-84.77,16.41,56.06,19.14,73.83c2,13,3.27,62.47,3.81,88.18h326.9C1534.17,2023.18,1435.55,1969.07,1424.39,1961Z"/></g><g id="衣服._右" data-name="衣服. 右"><path id="衣服.右.底" class="cls-5" d="M626.65,1838.59c10.94-28.71,15-45.12,15-45.12-12.31,0-66.31,18.46-93.65,25.3s-68.36,15-84.76,23.24-125.1,85.45-138.77,93.65-51.95,42.38-67,47.85-99.8,45.12-123,52c-8,2.36-11.63,8.28-12.94,15H684.15L556.93,1844.06l34.17,47.85S615.71,1867.3,626.65,1838.59Z"/><path id="衣服.右.影子" class="cls-6" d="M626.65,1838.59c10.94-28.71,15-45.12,15-45.12-12.31,0-66.31,18.46-93.65,25.3s-68.36,15-84.76,23.24c-13.78,6.89-92.65,62.47-125.66,85L503.05,2050.5h181.1L556.93,1844.06l34.17,47.85S615.71,1867.3,626.65,1838.59Z"/><path id="衣服.右.线条" class="cls-4" d="M626.65,1838.59c10.94-28.71,15-45.12,15-45.12-12.31,0-66.31,18.46-93.65,25.3s-68.36,15-84.76,23.24-125.1,85.45-138.77,93.65-51.95,42.38-67,47.85-99.8,45.12-123,52c-8,2.36-11.63,8.28-12.94,15H684.15L556.93,1844.06l34.17,47.85S615.71,1867.3,626.65,1838.59Z"/></g></g><g id="后发"><path id="后发.3" class="cls-7" d="M1745.67,1471.51c34.18,0,127.14-53.32,127.14-53.32s39.65-117.58,39.65-203.71-17.77-218.74-17.77-218.74H1502.07v490.81H1557c35.55,0,75.19-17.77,109.37-17.77s47.85-2.74,47.85-2.74,64.26-149,69.73-201c-5.47,52-69.73,201-69.73,201h20.51s80.66-187.3,72.46-242c8.2,54.69-72.46,242-72.46,242Z"/><path id="后发.2" class="cls-7" d="M468.74,1505.69c17.78,0,46.49-1.37,46.49-1.37-30.08-20.51-99.8-117.57-99.8-117.57s75.19,105.27,99.8,117.57h58.29c18.27,0,135.6-1.86,135.6-135.59s-155.61-247.9-247.9-247.9-327.43,19.83-327.43,157.91,165.43,203.71,213.28,203.71,93,12.3,93,12.3C382.61,1466,343,1369,343,1369s34.17,91.6,97.06,125.78C440,1494.75,453.71,1505.69,468.74,1505.69Z"/><path id="后发.1" class="cls-8" d="M2050.5,2.5H1735.07c-42.59,240.58-103,738.26,126.12,738.26,81.33,0,139-65.82,189.31-141.53Z"/></g><g id="耳朵"><g id="耳朵.左"><path id="耳朵.左.1" class="cls-9" d="M1719,1183.72c79.29,0,205.07-183.2,205.07-328.11s-76.28-154-119.49-154S1719,1183.72,1719,1183.72Z"/><path id="耳朵.左.2" class="cls-10" d="M1870.08,887.73c0,56.06-75.88,199.61-114.84,199.61s-20.51-343.16,31.44-343.16S1870.08,850.82,1870.08,887.73Z"/></g><g id="耳朵.右"><path id="耳朵.右.1" class="cls-9" d="M434.57,1325.22c-229.69,0-370.5-292.57-370.5-388.27,0-124.41,47.85-124.41,101.17-124.41C234,812.54,434.57,1325.22,434.57,1325.22Z"/><path id="耳朵.右.2" class="cls-10" d="M352.1,1230.22c-81.59-2.06-180-148.35-180-214s13.67-88.87,26.09-89.21C215.81,926.56,352.1,1230.22,352.1,1230.22Z"/></g></g><g id="中发"><path id="中发-2" data-name="中发" class="cls-8" d="M2050.5,762.85c-64-175.41-142.14-312.61-142.14-312.61l-91.6-6.26V752.39s82,47.85,82,488.07c0,125.78-86.36,307.61-86.36,307.61s116.44-166.79,130.11-410.15c-16.41,289.84-93,410.15-93,410.15l98.44-79.29h20.5s55-3,64.26-8.21c4.38-2.43,11-7.46,17.73-12.93Z"/><path id="中发.阴影" class="cls-11" d="M1831.8,770.16c23.68,37.72,67,150.44,67,470.3,0,125.78-86.36,307.61-86.36,307.61s54.34-77.84,93.13-204.76c12.77-69.32,20.57-155.23,20.57-261.44C1926.13,987.54,1890.59,770.17,1831.8,770.16Z"/></g><g id="脸"><path id="脸.底" class="cls-12" d="M110.55,309.43c0,362.29,62.89,552.33,109.37,679.47,50.91,139.26,137.74,253.05,173.63,292.57,94.33,103.91,152.68,163.52,421.08,295.31,228.32,112.11,262.5,106.64,292.58,106.64,27.34,0,175.63-78.09,263.86-125.78,102.49-55.4,215.36-109.32,277.53-179.1,29.61-33.23,90.23-128.51,113.47-221.48,20.68-82.71,142.19-373.23,142.19-753.3,0-153.12-37.92-288.16-104.51-401.26H222.23C152,95.94,110.55,200.51,110.55,309.43Z"/><path id="脸.阴影" class="cls-3" d="M110.55,309.43c0,362.29,62.89,552.33,109.37,679.47,50.91,139.26,137.74,253.05,173.63,292.57,89.61,98.7,146.76,157.44,382.32,276-174.89-134.32-344-392.51-344-513.92C431.83,880.9,507,800.24,507,800.24L375.78,520c73.39-137.59,200.54-248.43,359.56-326.75l-82,179.1c79.77-29.67,163.24-96.72,242-191.41l82-17.77c-13.68,266.6,31.44,437.49,311.71,494.91C1159.16,570.55,1075.76,479,1075.76,479l26-304.87c19.27,38.79,33.72,84.07,39.64,140.82L1423,194.59c9.07.93,23.34,69.9,24.51,202.33L1537.86,60.6c39.1,61.53,61.07,154.85,45.12,318.55,42.35-85.92,63.46-177.39,67-273.43,44.75,95,64.25,237.89,12.3,341.79l43.75,9.57,45.12-306.24c49.89,108.16,78.6,291.52,79.29,509.95l17.77-47.85,9.57,120.31,28.48-72.41a1880.7,1880.7,0,0,0,18-257.08c0-153.12-37.91-288.17-104.5-401.26H222.21C152,95.94,110.55,200.51,110.55,309.43Z"/><path id="脸.框" class="cls-4" d="M110.55,309.43c0,362.29,62.89,552.33,109.37,679.47,50.91,139.26,137.74,253.05,173.63,292.57,94.33,103.91,152.68,163.52,421.08,295.31,228.32,112.11,262.5,106.64,292.58,106.64,27.34,0,175.63-78.09,263.86-125.78,102.49-55.4,215.36-109.32,277.53-179.1,29.61-33.23,90.23-128.51,113.47-221.48,20.68-82.71,142.19-373.23,142.19-753.3,0-153.12-37.92-288.16-104.51-401.26H222.23C152,95.94,110.55,200.51,110.55,309.43Z"/></g><g id="嘴"><g class="cls-13"><path id="嘴.基本" class="cls-14" d="M1227.52,1289.68c77.92,0,127.21-10.25,155.85-8.21,19.14,1.37,31.45,17.78,31.45,34.18s-21.88,128.52-117.58,166.8c-91.55,36.62-207.81,56-314.45,56-47.85,0-208.74-28.49-255.65-99.8-34.18-52-43.75-79.3-43.75-117.58s83.39-123,170.89-123C999.2,1198.08,1038.85,1289.68,1227.52,1289.68Z"/><path id="嘴.舌头" class="cls-15" d="M1374.48,1387.43c0,61.52-61.52,84.88-61.52,154.49,0,23.24-166.79,30.08-313.08,30.08s-351.35-55.37-351.35-218.75,88.86-203.71,199.6-203.71C1086,1149.54,1374.48,1282.16,1374.48,1387.43Z"/><g id="嘴.舌"><g class="cls-16"><path id="嘴.舌上阴影" class="cls-11" d="M938.36,1301.3c99.8,0,299.41,24.61,421.09,24.61,214.64,0,199.6-251.56,199.6-251.56H621.18v534.49H823.52s-60.15-53.25-60.15-154.42S870,1301.3,938.36,1301.3Z"/></g></g></g></g><path id="鼻" class="cls-17" d="M1329.37,977.28c0,15-47.85,47.85-56,47.85s-38.28-4.1-38.28-16.4,56-98.44,68.35-98.44S1329.37,966.35,1329.37,977.28Z"/><g id="眼睛"><g id="左眼.毛发"><path id="左眼.眉毛" class="cls-18" d="M1601.84,164.6c143.14,0,248.42,152.35,248.42,171.49,0,43.75-50.59-152.37-248.42-152.37-142.59,0-267,166-267,131.86C1334.84,262.26,1518,164.6,1601.84,164.6Z"/><path id="左眼.睫毛4.阴影" class="cls-19" d="M1530.34,373c-10.94,0-142.18,53.32-142.18,69.72s-6.84,74.14,0,74.14c8.2,0,51.26-47.48,65.62-61.83s87.5-68.36,87.5-76.56S1535.81,373,1530.34,373Z"/><path id="左眼.睫毛4" class="cls-20" d="M1449.68,446.83c-16.41,16.4-62.89,56.05-57.42,61.52s49.22-43.75,61.52-53.32,67-46.48,64.26-51.95S1462,434.52,1449.68,446.83Z"/><path id="左眼.睫毛2" class="cls-18" d="M1582.29,851.5c36.92,0,103.91-16.4,103.91-31.44,0-62.89-73.83-46.48-108-46.48s-73.83,49.21-73.83,49.21-53.31-23.24-53.31-19.14C1451.05,809.12,1522.14,851.5,1582.29,851.5Z"/><path id="左眼.睫毛3" class="cls-18" d="M1686.2,386.67c72.46,0,146.28,90.23,146.28,98.44,0,6.83-72.46-90.41-146.28-90.41-16.41,0-42.39,8.38-57.42,8.38C1612.37,403.08,1675.26,386.67,1686.2,386.67Z"/><path id="左眼.睫毛1" class="cls-18" d="M1646.55,397.61c87.5,0,183.2,142.18,183.2,166.79,0,26.66-134,255.66-181.83,255.66s-183.2-318.55-183.2-318.55-65.63,45.51-65.63,36.92S1590.5,397.61,1646.55,397.61Z"/></g><g id="左眼"><g class="cls-21"><path id="左眼.眼白" class="cls-22" d="M1628.78,420.85c49.21,0,166.79,131.25,166.79,169.53S1717.64,794.08,1686.2,816s-69.73,31.44-108,31.44c-57.42,0-169.53-38.28-169.53-213.27,0-45.12-2.73-87.5,4.11-94.34C1461.42,491.14,1572.72,420.85,1628.78,420.85Z"/><path id="左眼.阴影" class="cls-11" d="M1611,461.86c86.13,0,183.2,153.13,183.2,199.61s57.42,16.41,57.42,16.41L1857.09,358H1364.91V665.57s27.35-20.51,27.35-47.85S1533.08,461.86,1611,461.86Z"/><g id="左眼.虹膜"><g class="cls-23"><path id="左眼.球体" class="cls-24" d="M1589.13,464.6c69.72,0,118.94,41,118.94,168.16,0,76.56-72.46,154.49-139.45,154.49-9.57,0-120.31,6.83-120.31-144.92C1448.31,569.87,1522.14,464.6,1589.13,464.6Z"/><circle id="左眼.瞳孔" class="cls-25" cx="1548.8" cy="690.86" r="45.8"/><g id="左眼.装饰"><g class="cls-26"><path id="左眼.装饰1" d="M1586.39,720.26c53.32,1.36,142.19-38.28,142.19-142.19S1669.79,440,1594.6,440s-114.16,69.73-114.16,114.16S1512.59,718.36,1586.39,720.26Z"/><rect id="左眼.装饰2" class="cls-22" x="1611.83" y="456.92" width="33.05" height="304.74" transform="translate(707.33 -865.33) rotate(37.5)"/><rect id="左眼.装饰3" class="cls-27" x="1658.55" y="486.37" width="17.5" height="304.74" transform="translate(733.31 -882.95) rotate(37.5)"/><rect id="左眼.装饰4" class="cls-27" x="1578.6" y="422.67" width="23.83" height="304.74" transform="translate(678.67 -849.37) rotate(37.5)"/></g></g><path id="左眼.高光" class="cls-28" d="M1515.3,672.41c52,0,102.54-49.22,102.54-102.54,0-60.15-30.08-83.4-50.59-83.4-65.62,0-94.33,79.3-94.33,118.95C1472.92,654.63,1501.63,672.41,1515.3,672.41Z"/></g></g></g></g><g id="右眼.毛发"><path id="右眼.眉毛" class="cls-18" d="M707.31,163.82c-143.14,0-363.66,140.82-363.66,155.86,0,12.3,190-140.82,365-140.82,132.61,0,270.7,136.72,280.27,136.72,6.83,0,8.2-5.79,8.2-13.67C997.15,282.77,835.83,163.82,707.31,163.82Z"/><path id="右眼.睫毛2.阴影" class="cls-19" d="M715.52,330.62c31.44,0,181.83,73.82,181.83,102.53,0,23.25-9.57,36.92-15,36.92-10.94,0-81.88-58.8-98.44-73.83-17.42-15.81-99.8-53.23-99.8-57.42C684.07,333.35,703.3,330.62,715.52,330.62Z"/><path id="右眼.睫毛2" class="cls-20" d="M778.4,386.67c-19.18-19.19-95.7-51.95-98.43-47.85s82,45.12,94.33,53.32,84.77,69.72,86.13,65.62S785.24,393.51,778.4,386.67Z"/><path id="右眼.睫毛1" class="cls-18" d="M607.51,381.2c-144.92,0-280.27,87.5-280.27,93,0,2.07,52.1-26.51,106.64-47.85,31.45-12.31,108-39.62,108-35.55,0,5.47-240.62,149-240.62,160,0,6.62,26.51,122.21,53.32,149,28.71,28.71,101.17,117.58,91.6,127.15-8.21,8.2,89.86,54.68,151.75,54.68,68.36,0,139.45-27.34,139.45-45.11,0-24.54,74.1-311.72,82-311.72,16.23,0,24.61-2.73,24.61-13.67C844,497.41,647.16,381.2,607.51,381.2Z"/></g><g id="右眼"><g class="cls-29"><path id="右眼.眼白" class="cls-22" d="M645.79,419.48c50.76,0,139.45,49.22,191.4,97.07,7.82,7.21,8.21,71.65,8.21,101.17,0,231-194.14,259.76-242,259.76-17.77,0-263.86-10.94-263.86-307.61C339.55,558.93,531,419.48,645.79,419.48Z"/><path id="右眼.阴影" class="cls-11" d="M641.69,444.09c71.09-.55,217.38,105.27,217.38,173.63,0,10.94,23.24,2.73,23.24,2.73V397.61H295.8V701.12s36.91,12.3,36.91,0C332.71,654.63,466.69,445.46,641.69,444.09Z"/><g id="右眼.虹膜"><g class="cls-30"><path id="右眼.球体" class="cls-24" d="M625.28,453.66c64.26,0,161.33,49.22,161.33,180.47S663.56,807.76,625.28,807.76,464,799.55,464,641C464,476.9,573.33,453.66,625.28,453.66Z"/><circle id="右眼.瞳孔" class="cls-25" cx="615.71" cy="703.85" r="51.95"/><g class="cls-31"><path id="右眼.装饰1" d="M671.77,728.46c45.11,0,129.88-38.28,129.88-124.41,0-94.33-71.1-244.72-160-244.72S487.2,403.08,487.2,487.84C487.2,578.07,578.8,728.46,671.77,728.46Z"/><rect id="左眼.装饰2-2" data-name="左眼.装饰2" class="cls-22" x="672.6" y="483.01" width="36.34" height="267.92" transform="translate(531.39 -295.4) rotate(38.32)"/><rect id="左眼.装饰3-2" data-name="左眼.装饰3" class="cls-27" x="736.73" y="511.02" width="16.26" height="267.92" transform="translate(560.42 -322.9) rotate(38.32)"/><rect id="左眼.装饰4-2" data-name="左眼.装饰4" class="cls-27" x="637.66" y="423.84" width="30.71" height="267.92" transform="translate(486.58 -284.74) rotate(38.32)"/></g><path id="右眼.高光" class="cls-28" d="M579.48,487.16c67,0,93,57.42,93,109.37,0,58.79-39.65,108-106.64,108-49.22,0-82.71-23.24-82.71-118.25C483.1,522.7,527.53,487.16,579.48,487.16Z"/></g></g></g></g></g><g id="前发"><path id="前发.12" class="cls-32" d="M286.91,1388.11s-82-170.89-82-429.28c0-93-16.4-250.19,28.71-250.19H108.31v339.73Z"/><path id="前发.11" class="cls-32" d="M159.77,882.27c0-62.89-1.37-124.42-1.37-124.42S125.69,695,123,619.82c7,194.29,224,365,224,365s-99.81-124.41-99.81-325.38c0-86.13,58.79-226.95,58.79-226.95s-5.27,5.16-12.95,14.14C384,335.56,594.4,172.87,1012.2,2.5H2.5V1497c21,2.47,40.13,5.27,52,8.66,38.28,10.94,57.42,52,73.82,52h24.61s87.5,56,94.33,56c12.31,0,43.75-2.73,52-2.73,7.35,0,34.47,5.49,40,6.63l16,22.08,108,6.84S159.77,1352.57,159.77,882.27ZM235,562.35c0-17.51,8.14-42.37,27.3-73.14C249.51,510.45,238.14,535.89,235,562.35ZM122.89,614.49c0-1.43,0-2.86,0-4.29C122.85,611.63,122.87,613.06,122.89,614.49Zm.12,4.56c0-1.15-.07-2.3-.1-3.46C122.94,616.75,123,617.9,123,619.05Zm133.82,777.27a1016.73,1016.73,0,0,0,84.73,132.77C288.2,1460.62,256.83,1396.32,256.83,1396.32Z"/><polygon id="前发.11.高光.3" class="cls-33" points="64.33 2.5 63.38 27.11 87.99 2.5 64.33 2.5"/><polygon id="前发.11.高光.2" class="cls-33" points="189.12 2.5 122.17 135.11 280.33 2.5 189.12 2.5"/><path id="前发.11.高光.1" class="cls-33" d="M443,2.5C242,218.08,257.52,371.63,257.52,371.63S371,148.79,507.71,62.66C371,187.07,347.75,332,347.75,332S459.86,135.11,689.54,55.82L781.21,2.5Z"/><path id="前发.11.线条1" class="cls-34" d="M2.5,1371.76v35.48c11.3,29.73,22.7,55.43,32.86,72.47Z"/><path id="前发.11.线条2" class="cls-34" d="M2.5,1045.18v290.55c17.3,49,38.24,100.7,62.93,157.65Z"/><path id="前发.11.线条3" class="cls-34" d="M65.43,558c0-110.52,175.53-394.84,199.19-424.26"/><path id="前发.10.底" class="cls-35" d="M2050.5,299.64V141.81c-52.77-50.06-105.61-83.26-133.94-109.92l86.13,65.63q25.05,10.94,47.81,22.42v-86c-19.72-12.45-36.25-22.69-47.81-30.71H1703.33s150.48,180.47,150.48,468.94c0,143.55-57.56,237.88-57.56,237.88s123.81-103,124.61-308.47c3,182.45-74.57,323.83-136.91,417.85,49.22-38.28,255.66-207.81,255.66-403.31,0-37.65-3-92.79-12.82-144.06A286.58,286.58,0,0,1,2050.5,299.64Zm-47.56-107.25q-2.1-4.51-4.35-8.74Q2000.87,187.88,2002.94,192.39Z"/><path id="前发.10.阴影.2" class="cls-36" d="M1752.19,3.18,1754,81c43.7,79.11,99.81,215,99.81,391.14,0,143.55-57.56,237.88-57.56,237.88s9.36-7.79,22.94-23.34c53.24-88.14,147.28-323.3-58.27-683.48Z"/><path id="前发.10.阴影.1" class="cls-36" d="M1889.9,200.74c26.58,127.33,27.6,233.36,15.67,319.74A471.86,471.86,0,0,0,1920.86,402c1.45,91.77-17.48,173.13-44.6,243.29-19.23,56.11-42.92,98.37-63.09,127.81-9.87,16.51-19.72,31.95-29.22,46.28,22.89-17.81,79.77-64,134.09-128C1943.39,578.44,1976.5,355.24,1889.9,200.74Z"/><path id="前发.10.框" class="cls-34" d="M2050.5,299.64V141.81c-52.77-50.06-105.61-83.26-133.94-109.92l86.13,65.63q25.05,10.94,47.81,22.42v-86c-19.72-12.45-36.25-22.69-47.81-30.71H1703.33s150.48,180.47,150.48,468.94c0,143.55-57.56,237.88-57.56,237.88s123.81-103,124.61-308.47c3,182.45-74.57,323.83-136.91,417.85,49.22-38.28,255.66-207.81,255.66-403.31,0-37.65-3-92.79-12.82-144.06A286.58,286.58,0,0,1,2050.5,299.64Zm-47.56-107.25q-2.1-4.51-4.35-8.74Q2000.87,187.88,2002.94,192.39Z"/><path id="前发.9.底" class="cls-36" d="M274.32,2.5C121.51,82.53,42.89,234.05,2.5,373.25V508.41C54.27,376.35,169.11,185.2,423.63,3.18l.91-.68Z"/><path id="前发.9.高光" class="cls-35" d="M222.64,175.43a1386.13,1386.13,0,0,1,134.41-122C295.25,84.69,250.75,125.05,222.64,175.43Z"/><path id="前发.9.框" class="cls-34" d="M274.32,2.5C121.51,82.53,42.89,234.05,2.5,373.25V508.41C54.27,376.35,169.11,185.2,423.63,3.18l.91-.68Z"/><path id="前发.8" class="cls-8" d="M256.25,2.5c-28.6,16.86-84.18,30.76-84.18,30.76s177.7,18,330.4-30.08c.73-.23,1.39-.45,2-.68Z"/><path id="前发.7" class="cls-8" d="M1656.8,3.18s69.73,135.35,69.73,291.21c0,97.07-19.14,139.45-19.14,139.45s64.25-49.22,64.25-273.43c0-84.23-10.27-132.13-24.67-157.91h-89.51Z"/><path id="前发.6" class="cls-8" d="M1561,3.18s63,108.71,63,229.69-47.85,216-47.85,216,83.4-90.24,83.4-330.85c0-56.73-5.48-93.08-13.85-115.53h-84.13Z"/><path id="前发.5" class="cls-8" d="M1488.64,111.19c0,202.34-86.13,360.93-86.13,360.93s151.76-180.47,151.76-429.29c0-10.18-3-25.37-7.65-40.33h-52.47C1490.73,27,1488.64,62.22,1488.64,111.19Z"/><path id="前发.3.底" class="cls-36" d="M412.69,461.18c250.19,0,447.06-270.7,477.14-348.62,0,108-124.41,277.53-196.87,318.54,147.65,0,382.8-289.83,382.8-425.18,0,0-244.72-2.74-314.44-2.74C761.32,190.48,612.3,386,412.69,461.18Z"/><path id="前发.3.高光" class="cls-35" d="M886.8,324.92c75.12-71.45,142.41-166.48,172.42-244.51l5.64-74.61-5.34-.06C1017.26,115.14,959.32,221.76,886.8,324.92Z"/><path id="前发.3.框" class="cls-34" d="M412.69,461.18c250.19,0,447.06-270.7,477.14-348.62,0,108-124.41,277.53-196.87,318.54,147.65,0,382.8-289.83,382.8-425.18,0,0-244.72-2.74-314.44-2.74C761.32,190.48,612.3,386,412.69,461.18Z"/><path id="前发.4.底" class="cls-35" d="M725.29,2.5C705.1,37.19,658,106.91,583.59,153.57c132.28-47.91,338.35-119.63,429-151.07Z"/><path id="前发.4.阴影" class="cls-36" d="M725.29,2.5C705.1,37.19,658,106.91,583.59,153.57c29.95-10.85,63.7-22.92,99-35.47A848.48,848.48,0,0,0,761.09,2.5Z"/><path id="前发.4.框" class="cls-34" d="M725.29,2.5C705.1,37.19,658,106.91,583.59,153.57c132.28-47.91,338.35-119.63,429-151.07Z"/><path id="前发.2" class="cls-32" d="M1077.14,2.5c-33,67-62.9,167-62.9,260.44,0,359.57,172.26,382.81,278.9,458-109.37-88.86-185.93-166.79-185.93-400.58,0-143,41.92-251,61.1-317.86Z"/><path id="前发.1.底" class="cls-35" d="M1193.34,5.92c0,381.43-318.55,657.6-377.34,657.6,313.08,0,676.74-319.91,676.74-659,0-.69,0-1.36,0-2H1193.39C1193.36,3.63,1193.34,4.77,1193.34,5.92Z"/><g id="前发.1.阴影"><path class="cls-36" d="M1193.38,2.5c0,1.13,0,2.27,0,3.42,0,381.43-318.55,657.6-377.34,657.6,48,0,97.15-7.53,146-21.47C1123.2,474.74,1232.47,246.57,1250.61,2.5Z"/></g><g id="前发.1.框"><path class="cls-37" d="M1487.73,7.5A502.53,502.53,0,0,1,1471.66,129a597.66,597.66,0,0,1-45.1,119.34A712.54,712.54,0,0,1,1357.19,359a801.48,801.48,0,0,1-88.84,98.51c-64.6,60.78-139.49,111.31-216.59,146.14a651.1,651.1,0,0,1-117.94,40.57,533.54,533.54,0,0,1-86.17,13.19c15.75-8.63,34.77-22,55.32-39.19,43.19-36.08,88.56-84.91,127.75-137.5C1107,378.41,1197.87,213.32,1198.33,7.5h289.4m5-5H1193.39c0,1.13-.05,2.27-.05,3.42,0,381.43-318.55,657.6-377.34,657.6,313.08,0,676.74-319.91,676.74-659,0-.69,0-1.36,0-2Z"/></g></g></g></g></svg>